<?xml version="1.0" standalone="no"?><!DOCTYPE svg PUBLIC "-//W3C//DTD SVG 1.1//EN" "http://www.w3.org/Graphics/SVG/1.1/DTD/svg11.dtd"><svg t="1756027012203" class="icon" viewBox="0 0 1024 1024" version="1.1" xmlns="http://www.w3.org/2000/svg" p-id="16423" xmlns:xlink="http://www.w3.org/1999/xlink" width="256" height="256"><path d="M962.90133333 51.54133333H734.66311111L670.15111111 122.31111111h233.01688889c18.31822222 0 33.22311111 14.90488889 33.22311111 33.22311111v612.01066667L699.50577778 525.53955555s-18.432-11.49155555-43.34933333 3.41333334c-14.22222222 16.04266667 68.15288889 79.07555555 55.97866666 101.14844444-16.15644445 29.01333333-246.44266667 268.40177778-246.44266666 268.40177778h-0.11377778l-67.24266667 70.76977778h564.45155555c24.46222222 0 44.25955555-19.79733333 44.25955556-44.25955556V95.68711111c0-24.34844445-19.79733333-44.14577778-44.14577778-44.14577778z" fill="#8a8a8a" p-id="16424"></path><path d="M399.70133333 821.02044445l151.66577778-183.75111112s13.312-13.76711111-2.16177778-32.08533333c-11.15022222-13.08444445-117.98755555-117.30488889-177.49333333-175.104L87.38133333 788.48V157.58222222c0-18.31822222 14.90488889-33.22311111 33.22311112-33.22311111h401.74933333l54.04444444-70.76977778H60.87111111c-24.46222222 0-44.25955555 19.79733333-44.25955556 44.25955556v873.58577778H275.11466667l124.58666666-150.41422222z" fill="#8a8a8a" p-id="16425"></path><path d="M737.50755555 328.81777778m-105.01688888 0a105.01688889 105.01688889 0 1 0 210.03377778 0 105.01688889 105.01688889 0 1 0-210.03377778 0Z" fill="#8a8a8a" p-id="16426"></path></svg>