<?xml version="1.0" encoding="UTF-8"?>
<!DOCTYPE svg PUBLIC "-//W3C//DTD SVG 1.1//EN" "http://www.w3.org/Graphics/SVG/1.1/DTD/svg11.dtd">
<svg xmlns="http://www.w3.org/2000/svg" version="1.1" width="250px" height="250px" style="shape-rendering:geometricPrecision; text-rendering:geometricPrecision; image-rendering:optimizeQuality; fill-rule:evenodd; clip-rule:evenodd" xmlns:xlink="http://www.w3.org/1999/xlink">
<g><path style="opacity:0.835" fill="#838586" d="M 29.5,91.5 C 27.4524,91.1596 26.4524,91.4929 26.5,92.5C 26.5,92.8333 26.5,93.1667 26.5,93.5C 25.6457,94.6316 25.6457,95.965 26.5,97.5C 24.2918,96.0825 23.4585,94.0825 24,91.5C 25.9435,90.193 27.7768,90.193 29.5,91.5 Z"/></g>
<g><path style="opacity:0.443" fill="#b6b7b7" d="M 116.5,95.5 C 117.946,94.3871 119.613,94.2204 121.5,95C 124.777,97.7663 127.443,100.933 129.5,104.5C 126.369,101.871 123.369,99.0379 120.5,96C 119.207,95.51 117.873,95.3433 116.5,95.5 Z"/></g>
<g><path style="opacity:1" fill="#fafbfb" d="M 117.5,98.5 C 116.835,110.352 115.335,122.352 113,134.5C 112.329,135.252 111.496,135.586 110.5,135.5C 104.166,132.335 98.1663,128.669 92.5,124.5C 95.1667,121.5 97.8333,118.5 100.5,115.5C 105.887,109.446 111.554,103.779 117.5,98.5 Z"/></g>
<g><path style="opacity:1" fill="#cdcdce" d="M 26.5,92.5 C 50.9232,100.975 75.5899,108.641 100.5,115.5C 97.8333,118.5 95.1667,121.5 92.5,124.5C 91.2618,125.412 89.9285,125.579 88.5,125C 69.5,115.167 50.5,105.333 31.5,95.5C 30.4777,95.8555 29.811,96.5222 29.5,97.5C 28.0256,96.5637 27.0256,95.2303 26.5,93.5C 26.5,93.1667 26.5,92.8333 26.5,92.5 Z"/></g>
<g><path style="opacity:0.38" fill="#c0c1c1" d="M 129.5,104.5 C 132.243,106.239 134.243,108.573 135.5,111.5C 132.757,109.761 130.757,107.427 129.5,104.5 Z"/></g>
<g><path style="opacity:0.922" fill="#414344" d="M 29.5,91.5 C 51.6273,97.8196 73.6273,104.653 95.5,112C 98.171,112.833 100.504,112.333 102.5,110.5C 105.573,108.431 107.906,105.764 109.5,102.5C 111.5,99.8333 113.833,97.5 116.5,95.5C 117.873,95.3433 119.207,95.51 120.5,96C 123.369,99.0379 126.369,101.871 129.5,104.5C 130.757,107.427 132.757,109.761 135.5,111.5C 136.419,114.089 138.086,116.089 140.5,117.5C 140.733,119.062 141.4,120.395 142.5,121.5C 141.833,121.5 141.5,121.833 141.5,122.5C 134.873,114.125 127.873,105.959 120.5,98C 119.251,97.2599 118.251,97.4265 117.5,98.5C 111.554,103.779 105.887,109.446 100.5,115.5C 75.5899,108.641 50.9232,100.975 26.5,92.5C 26.4524,91.4929 27.4524,91.1596 29.5,91.5 Z"/></g>
<g><path style="opacity:0.725" fill="#898a8b" d="M 109.5,102.5 C 107.906,105.764 105.573,108.431 102.5,110.5C 104.094,107.236 106.427,104.569 109.5,102.5 Z"/></g>
<g><path style="opacity:1" fill="#e9eaea" d="M 92.5,124.5 C 98.1663,128.669 104.166,132.335 110.5,135.5C 110.062,135.435 109.728,135.601 109.5,136C 110.416,136.374 111.25,136.874 112,137.5C 112.5,145.493 112.666,153.493 112.5,161.5C 109.365,161.44 106.031,161.273 102.5,161C 105.623,160.794 108.623,160.127 111.5,159C 109.524,158.812 107.524,158.979 105.5,159.5C 103.701,159.423 102.034,158.923 100.5,158C 102.878,157.026 102.544,156.359 99.5,156C 104.508,155.131 104.175,154.464 98.5,154C 100.5,153.667 102.5,153.333 104.5,153C 101.044,152.82 97.7111,152.153 94.5,151C 99.7225,148.916 99.7225,148.416 94.5,149.5C 91.931,146.723 88.431,144.39 84,142.5C 81.8471,144.444 79.3471,144.944 76.5,144C 78.1667,143.667 79.8333,143.333 81.5,143C 74.179,142.826 67.5124,140.826 61.5,137C 58.176,136.057 54.8426,135.224 51.5,134.5C 43.9034,122.304 36.5701,109.971 29.5,97.5C 29.811,96.5222 30.4777,95.8555 31.5,95.5C 50.5,105.333 69.5,115.167 88.5,125C 89.9285,125.579 91.2618,125.412 92.5,124.5 Z"/></g>
<g><path style="opacity:0.227" fill="#cecece" d="M 135.5,111.5 C 137.914,112.911 139.581,114.911 140.5,117.5C 138.086,116.089 136.419,114.089 135.5,111.5 Z"/></g>
<g><path style="opacity:0.91" fill="#484a4b" d="M 26.5,93.5 C 27.0256,95.2303 28.0256,96.5637 29.5,97.5C 36.5701,109.971 43.9034,122.304 51.5,134.5C 59.4463,148.223 67.7796,161.723 76.5,175C 87.3704,177.549 98.037,180.382 108.5,183.5C 109.167,184.167 109.833,184.833 110.5,185.5C 97.905,182.936 85.5717,179.602 73.5,175.5C 57.3079,149.776 41.6412,123.776 26.5,97.5C 25.6457,95.965 25.6457,94.6316 26.5,93.5 Z"/></g>
<g><path style="opacity:0.059" fill="#e1e2e2" d="M 140.5,117.5 C 141.627,118.122 142.627,118.955 143.5,120C 147.688,120.176 151.688,120.676 155.5,121.5C 151.167,121.5 146.833,121.5 142.5,121.5C 141.4,120.395 140.733,119.062 140.5,117.5 Z"/></g>
<g><path style="opacity:1" fill="#1e2021" d="M 224.5,121.5 C 224.5,122.833 224.5,124.167 224.5,125.5C 223.833,124.833 223.167,124.167 222.5,123.5C 195.833,123.5 169.167,123.5 142.5,123.5C 141.833,123.5 141.5,123.167 141.5,122.5C 141.5,121.833 141.833,121.5 142.5,121.5C 146.833,121.5 151.167,121.5 155.5,121.5C 178.746,121.473 201.746,121.473 224.5,121.5 Z"/></g>
<g><path style="opacity:1" fill="#b0b1b3" d="M 142.5,123.5 C 169.167,123.5 195.833,123.5 222.5,123.5C 222.672,124.492 222.338,125.158 221.5,125.5C 217.689,124.355 213.689,124.188 209.5,125C 179.52,129.031 149.52,132.865 119.5,136.5C 118.167,136.167 116.833,135.833 115.5,135.5C 126.492,133.954 137.492,132.454 148.5,131C 146.371,128.561 144.371,126.061 142.5,123.5 Z"/></g>
<g><path style="opacity:1" fill="#d5d5d5" d="M 117.5,98.5 C 118.251,97.4265 119.251,97.2599 120.5,98C 127.873,105.959 134.873,114.125 141.5,122.5C 141.5,123.167 141.833,123.5 142.5,123.5C 144.371,126.061 146.371,128.561 148.5,131C 137.492,132.454 126.492,133.954 115.5,135.5C 116.833,135.833 118.167,136.167 119.5,136.5C 149.52,132.865 179.52,129.031 209.5,125C 213.689,124.188 217.689,124.355 221.5,125.5C 206.143,145.185 190.809,164.852 175.5,184.5C 154.327,184.831 133.327,184.497 112.5,183.5C 113.833,176.167 113.833,168.833 112.5,161.5C 112.666,153.493 112.5,145.493 112,137.5C 111.25,136.874 110.416,136.374 109.5,136C 109.728,135.601 110.062,135.435 110.5,135.5C 111.496,135.586 112.329,135.252 113,134.5C 115.335,122.352 116.835,110.352 117.5,98.5 Z"/></g>
<g><path style="opacity:0.286" fill="#cbcbcb" d="M 224.5,121.5 C 227.167,123.167 227.167,124.833 224.5,126.5C 224.5,126.167 224.5,125.833 224.5,125.5C 224.5,124.167 224.5,122.833 224.5,121.5 Z"/></g>
<g><path style="opacity:0.094" fill="#cdcece" d="M 223.5,127.5 C 222.92,129.749 221.587,131.415 219.5,132.5C 220.08,130.251 221.413,128.585 223.5,127.5 Z"/></g>
<g><path style="opacity:0.031" fill="#dddede" d="M 219.5,132.5 C 219.262,134.404 218.262,135.738 216.5,136.5C 216.738,134.596 217.738,133.262 219.5,132.5 Z"/></g>
<g><path style="opacity:1" fill="#e3e3e3" d="M 51.5,134.5 C 54.8426,135.224 58.176,136.057 61.5,137C 67.5124,140.826 74.179,142.826 81.5,143C 79.8333,143.333 78.1667,143.667 76.5,144C 79.3471,144.944 81.8471,144.444 84,142.5C 88.431,144.39 91.931,146.723 94.5,149.5C 99.7225,148.416 99.7225,148.916 94.5,151C 97.7111,152.153 101.044,152.82 104.5,153C 102.5,153.333 100.5,153.667 98.5,154C 104.175,154.464 104.508,155.131 99.5,156C 102.544,156.359 102.878,157.026 100.5,158C 102.034,158.923 103.701,159.423 105.5,159.5C 107.524,158.979 109.524,158.812 111.5,159C 108.623,160.127 105.623,160.794 102.5,161C 106.031,161.273 109.365,161.44 112.5,161.5C 113.833,168.833 113.833,176.167 112.5,183.5C 111.167,183.5 109.833,183.5 108.5,183.5C 98.037,180.382 87.3704,177.549 76.5,175C 67.7796,161.723 59.4463,148.223 51.5,134.5 Z"/></g>
<g><path style="opacity:0.031" fill="#dedfdf" d="M 215.5,137.5 C 215.262,139.404 214.262,140.738 212.5,141.5C 212.738,139.596 213.738,138.262 215.5,137.5 Z"/></g>
<g><path style="opacity:0.094" fill="#cccdcd" d="M 211.5,142.5 C 210.92,144.749 209.587,146.415 207.5,147.5C 208.08,145.251 209.413,143.585 211.5,142.5 Z"/></g>
<g><path style="opacity:0.043" fill="#dadada" d="M 207.5,147.5 C 207.262,149.404 206.262,150.738 204.5,151.5C 204.738,149.596 205.738,148.262 207.5,147.5 Z"/></g>
<g><path style="opacity:0.016" fill="#dbdbdb" d="M 203.5,152.5 C 201.889,156.051 199.556,159.051 196.5,161.5C 198.111,157.949 200.444,154.949 203.5,152.5 Z"/></g>
<g><path style="opacity:1" fill="#303233" d="M 222.5,123.5 C 223.167,124.167 223.833,124.833 224.5,125.5C 224.5,125.833 224.5,126.167 224.5,126.5C 224.5,127.167 224.167,127.5 223.5,127.5C 221.413,128.585 220.08,130.251 219.5,132.5C 217.738,133.262 216.738,134.596 216.5,136.5C 216.5,137.167 216.167,137.5 215.5,137.5C 213.738,138.262 212.738,139.596 212.5,141.5C 212.5,142.167 212.167,142.5 211.5,142.5C 209.413,143.585 208.08,145.251 207.5,147.5C 205.738,148.262 204.738,149.596 204.5,151.5C 204.5,152.167 204.167,152.5 203.5,152.5C 200.444,154.949 198.111,157.949 196.5,161.5C 191.747,165.917 187.747,170.917 184.5,176.5C 182.413,177.585 181.08,179.251 180.5,181.5C 179.167,182.5 177.833,183.5 176.5,184.5C 176.167,184.5 175.833,184.5 175.5,184.5C 190.809,164.852 206.143,145.185 221.5,125.5C 222.338,125.158 222.672,124.492 222.5,123.5 Z"/></g>
<g><path style="opacity:0.043" fill="#d3d3d3" d="M 196.5,161.5 C 193.253,167.083 189.253,172.083 184.5,176.5C 187.747,170.917 191.747,165.917 196.5,161.5 Z"/></g>
<g><path style="opacity:0.078" fill="#d1d2d2" d="M 184.5,176.5 C 183.92,178.749 182.587,180.415 180.5,181.5C 181.08,179.251 182.413,177.585 184.5,176.5 Z"/></g>
<g><path style="opacity:1" fill="#111415" d="M 108.5,183.5 C 109.833,183.5 111.167,183.5 112.5,183.5C 133.327,184.497 154.327,184.831 175.5,184.5C 175.833,184.5 176.167,184.5 176.5,184.5C 155.006,185.497 133.34,185.831 111.5,185.5C 111.167,185.5 110.833,185.5 110.5,185.5C 109.833,184.833 109.167,184.167 108.5,183.5 Z"/></g>
<g><path style="opacity:0.063" fill="#a4a5a6" d="M 180.5,181.5 C 180.141,183.371 179.141,184.871 177.5,186C 155.329,186.83 133.329,186.663 111.5,185.5C 133.34,185.831 155.006,185.497 176.5,184.5C 177.833,183.5 179.167,182.5 180.5,181.5 Z"/></g>
</svg>
